<svg xmlns="http://www.w3.org/2000/svg" viewBox="0 0 28.68 28.68"><defs><style>.cls-1{fill:none;stroke:#000;stroke-miterlimit:10;stroke-width:0.5px;}.cls-2{fill:#282525;}</style></defs><title>benefit-2</title><g id="Layer_2" data-name="Layer 2"><g id="Layer_1-2" data-name="Layer 1"><circle class="cls-1" cx="14.34" cy="14.34" r="14.09"/><path class="cls-2" d="M332.35,534.72q-.94-6.48-1.9-13l-.27-1.87c0-.17-.23-.23-.37-.21l-4.22.62a.3.3,0,0,0-.21.36c.28,1.88.55,3.76.83,5.64l-4-3.84-1.36-1.31a.3.3,0,0,0-.41,0l-3,3.08a.3.3,0,0,0,0,.42l.74.71-.6-.27a.3.3,0,0,0-.41.11l-1.76,3.89a.29.29,0,0,0,.11.4l2.14,1-1.36,0a.3.3,0,0,0-.29.3c0,1.42,0,2.85-.05,4.27a.28.28,0,0,0,.29.29l11.26.14v0a.31.31,0,0,0,.37.21l1-.15.27.12a.29.29,0,0,0,.4-.11l0-.09,1.62,0a.3.3,0,0,0,.29-.29v0l.58-.08a.24.24,0,0,0,.21-.29v-.07M318.1,524.44c.86-.88,1.71-1.77,2.56-2.65l5.69,5.47.87,6-8-7.67-1.16-1.11m-.52,5.33-1.48-.67,1.51-3.36,1.87.84,7.43,7.16.45.43v0l-9.78-4.42m.6,5-1.59,0c0-1.23,0-2.46,0-3.69l2.41,0,8.37,3.79-9.23-.11m9.9.33-1.86-12.69c-.07-.52-.15-1-.23-1.55l3.66-.53L331.51,533c.07.52.15,1,.22,1.55l-3.65.53" transform="translate(-309.81 -514.51)"/><path class="cls-2" d="M329.69,532.29a1,1,0,1,0,1,1,1,1,0,0,0-1-1m0,1.66a.67.67,0,0,1-.67-.67.68.68,0,0,1,.67-.68.69.69,0,0,1,.68.68.68.68,0,0,1-.68.67" transform="translate(-309.81 -514.51)"/></g></g></svg>