<svg xmlns="http://www.w3.org/2000/svg" viewBox="0 0 28.68 28.68"><defs><style>.cls-1{fill:none;stroke:#000;stroke-miterlimit:10;stroke-width:0.5px;}.cls-2{fill:#231f20;}</style></defs><title>benefit-3</title><g id="Layer_2" data-name="Layer 2"><g id="Layer_1-2" data-name="Layer 1"><circle class="cls-1" cx="14.34" cy="14.34" r="14.09"/><path class="cls-2" d="M400.73,522.74l-2.46-2.62a.87.87,0,0,0-1.22,0L383.4,532.82a.86.86,0,0,0,0,1.22l2.45,2.63a.87.87,0,0,0,1.23,0L400.68,524a.88.88,0,0,0,.05-1.23m-.34.91-2,1.87-1-1.09a.18.18,0,0,0-.26.24l1,1.1-.75.7-1-1.1c-.16-.17-.42.08-.26.24l1,1.1-.75.7-1-1.1c-.16-.17-.42.08-.26.25l1,1.09-.75.7-1.73-1.86a.18.18,0,0,0-.26.24l1.73,1.86-.74.7-1-1.1c-.15-.16-.41.08-.26.25.34.36.68.73,1,1.09l-.75.7-1-1.09a.18.18,0,0,0-.26.24l1,1.09-.75.7-1-1.09a.18.18,0,0,0-.26.24l1,1.1-.75.69-1.73-1.86c-.16-.16-.42.08-.27.25l1.74,1.86-.75.7-1-1.1c-.15-.17-.42.08-.26.24l1,1.1-.74.7-1-1.1c-.15-.17-.41.08-.26.24l1,1.1-2.32,2.16a.44.44,0,0,1-.62,0l-2.45-2.63a.45.45,0,0,1,0-.62l13.65-12.74a.43.43,0,0,1,.62,0l2.45,2.62a.43.43,0,0,1,0,.62" transform="translate(-377.7 -514.51)"/><path class="cls-2" d="M398.75,522.12a.7.7,0,1,0,0,1,.71.71,0,0,0,0-1m-.33.68a.27.27,0,0,1-.39,0,.28.28,0,0,1,0-.39.28.28,0,0,1,.4,0,.27.27,0,0,1,0,.39" transform="translate(-377.7 -514.51)"/></g></g></svg>