<svg xmlns="http://www.w3.org/2000/svg" viewBox="0 0 28.68 28.68"><defs><style>.cls-1{fill:none;stroke:#000;stroke-miterlimit:10;stroke-width:0.5px;}.cls-2{fill:#231f20;}</style></defs><title>benefit-4</title><g id="Layer_2" data-name="Layer 2"><g id="Layer_1-2" data-name="Layer 1"><circle class="cls-1" cx="14.34" cy="14.34" r="14.09"/><path class="cls-2" d="M469.84,532.51h-2.5a.38.38,0,0,1-.34-.22,2,2,0,0,0-3.69,0,.36.36,0,0,1-.33.22h-3.57a.38.38,0,0,1-.34-.22,2,2,0,0,0-3.68,0,.38.38,0,0,1-.34.22h-2.57a1.1,1.1,0,0,1-1.09-1.11v-1.13h0a.79.79,0,0,1,.76-.61h9.21a.7.7,0,0,0,.69-.7v-5.05a.8.8,0,0,1,.8-.8h3a.79.79,0,0,1,.57.23l4.19,4.2a.79.79,0,0,1,.23.56v3.3a1.09,1.09,0,0,1-1.08,1.11m-2.46-.42h2.46a.68.68,0,0,0,.66-.69v-3.3a.39.39,0,0,0-.11-.27l-4.19-4.19a.39.39,0,0,0-.27-.11h-3a.38.38,0,0,0-.38.38V529a1.12,1.12,0,0,1-1.11,1.12h-9.21a.37.37,0,0,0-.36.3l0,.17v.85a.68.68,0,0,0,.67.69H455a2.4,2.4,0,0,1,4.44,0h3.49a2.4,2.4,0,0,1,4.44,0m.19-4.81h-3.85a.7.7,0,0,1-.7-.7v-2a.7.7,0,0,1,.7-.7h2a.71.71,0,0,1,.5.21l1.89,2a.71.71,0,0,1,.14.76.7.7,0,0,1-.65.42m-3.85-2.95a.28.28,0,0,0-.28.28v2a.28.28,0,0,0,.28.28h3.85a.27.27,0,0,0,.26-.17.28.28,0,0,0-.06-.3l-1.88-2a.27.27,0,0,0-.2-.09Z" transform="translate(-446.82 -514.52)"/><path class="cls-2" d="M460.28,529.31H453a1.39,1.39,0,0,1-1.39-1.39v-3.17a1.4,1.4,0,0,1,1.39-1.4h7.28a1.4,1.4,0,0,1,1.4,1.4v3.17a1.4,1.4,0,0,1-1.4,1.39M453,523.77a1,1,0,0,0-1,1v3.17a1,1,0,0,0,1,1h7.28a1,1,0,0,0,1-1v-3.17a1,1,0,0,0-1-1Z" transform="translate(-446.82 -514.52)"/><path class="cls-2" d="M457.23,534.8a1.67,1.67,0,1,1,1.66-1.66,1.66,1.66,0,0,1-1.66,1.66m0-2.91a1.25,1.25,0,1,0,1.24,1.25,1.25,1.25,0,0,0-1.24-1.25" transform="translate(-446.82 -514.52)"/><path class="cls-2" d="M465.14,534.8a1.67,1.67,0,1,1,1.67-1.66,1.66,1.66,0,0,1-1.67,1.66m0-2.91a1.25,1.25,0,1,0,1.24,1.25,1.25,1.25,0,0,0-1.24-1.25" transform="translate(-446.82 -514.52)"/></g></g></svg>