<svg xmlns="http://www.w3.org/2000/svg" viewBox="0 0 28.68 28.68"><defs><style>.cls-1{fill:none;stroke:#000;stroke-miterlimit:10;stroke-width:0.5px;}.cls-2{fill:#231f20;}</style></defs><title>benefit-1</title><g id="Layer_2" data-name="Layer 2"><g id="Layer_1-2" data-name="Layer 1"><circle class="cls-1" cx="14.34" cy="14.34" r="14.09"/><path class="cls-1" d="M265.27,530.31a2.63,2.63,0,0,1-.06.39,1.42,1.42,0,0,1-.14.36.61.61,0,0,1-.25.23.65.65,0,0,1-.34,0,1.5,1.5,0,0,1-.34-.11,3.37,3.37,0,0,1-.32-.19,1.44,1.44,0,0,1-.25-.18v-.06c0-3.27-3.33-5.91-7.43-5.91a9,9,0,0,0-3.33.62,1.72,1.72,0,0,0-1.18-1.13,1.21,1.21,0,0,1,.3,1.24,1.84,1.84,0,0,0-1.11-.91c.53.36.33,1.3.15,1.84a5.83,5.83,0,0,0-2,2.7l-.74.13a.42.42,0,0,0-.42.42v2a.42.42,0,0,0,.42.42l.73.13a6.65,6.65,0,0,0,4.56,4l.3,1.36a.18.18,0,0,0,.17.18h.41a.17.17,0,0,0,.17-.18l.24-1.07a9.69,9.69,0,0,0,1.33.09,9.48,9.48,0,0,0,1.62-.14l.25,1.12a.17.17,0,0,0,.17.18h.41a.17.17,0,0,0,.17-.18l.32-1.46a6.22,6.22,0,0,0,4.46-4.9l.1.05.4.14a1.55,1.55,0,0,0,.43.07.83.83,0,0,0,.22,0,.67.67,0,0,0,.21-.09.5.5,0,0,0,.17-.15,1.18,1.18,0,0,0,.11-.19,1.37,1.37,0,0,0,.09-.4A2.67,2.67,0,0,0,265.27,530.31Z" transform="translate(-241.76 -514.51)"/><circle class="cls-1" cx="15.19" cy="6.42" r="2.59"/><path class="cls-2" d="M257.77,520.89a1.34,1.34,0,0,0-.67-.34v-.79a.4.4,0,0,1,.25.32l.51-.06a.84.84,0,0,0-.24-.49.86.86,0,0,0-.52-.22v-.2h-.29v.2a.82.82,0,0,0-.56.26.79.79,0,0,0-.21.56.87.87,0,0,0,.18.56,1.13,1.13,0,0,0,.59.34v.86a.65.65,0,0,1-.2-.17.69.69,0,0,1-.12-.29l-.53.06a1,1,0,0,0,.28.62.85.85,0,0,0,.57.26v.37h.29v-.38a1,1,0,0,0,.62-.3.91.91,0,0,0,.22-.63.83.83,0,0,0-.17-.54m-1-.44a.38.38,0,0,1-.2-.14.39.39,0,0,1-.06-.21.33.33,0,0,1,.07-.21.34.34,0,0,1,.19-.14Zm.54,1.32a.35.35,0,0,1-.25.14v-.79a.68.68,0,0,1,.27.15.41.41,0,0,1,.08.24.4.4,0,0,1-.1.26" transform="translate(-241.76 -514.51)"/></g></g></svg>