<svg xmlns="http://www.w3.org/2000/svg" viewBox="0 0 73.46 13.76"><defs><style>.cls-1{fill:#0d0c0b;}</style></defs><title>Asset 1</title><g id="Layer_2" data-name="Layer 2"><g id="Layer_1-2" data-name="Layer 1"><path d="M212.26-463.09l-2.56,2-1.41,1.13h0l-.26.21v1.77h-1.4v-5.16H208v1.58l2-1.58Zm-2.42,2.24,2,2.92h-1.7l-1.39-2Z" transform="translate(-187.04 463.5)"/><path d="M214.1-457.93h-1.41v-5.16h1.41Zm3.51-5.16v5.16h-1.4v-1.88h-1.88v-1.4h1.88v-1.88Z" transform="translate(-187.04 463.5)"/><polygon points="35.1 0.41 37.34 5.56 35.81 5.56 35.5 4.86 33.13 4.86 33.73 3.46 34.89 3.46 34.18 1.81 34.16 1.81 32.53 5.56 31 5.56 33.24 0.41 35.1 0.41"/><path d="M226.09-463.09l2.24,2.76h0l1.41,1.73v.67h-1.27l-2.25-2.77h0l-1.4-1.74v-.66Zm-1.27,1,1.4,1.74v2.39h-1.4Zm4.92-1V-459l-1.41-1.74v-2.38Z" transform="translate(-187.04 463.5)"/><path d="M230.17-461.45a1.59,1.59,0,0,1,.48-1.16,1.59,1.59,0,0,1,1.16-.48h3.28v1.4H232a.45.45,0,0,0-.33.14.48.48,0,0,0-.13.34v1.4a.44.44,0,0,0,.13.33.45.45,0,0,0,.33.14h1.64v-.47H232l.62-1.4h2.43v3.28h-3.28a1.6,1.6,0,0,1-1.16-.49,1.56,1.56,0,0,1-.48-1.15Z" transform="translate(-187.04 463.5)"/><path d="M242.61-461.69h-4.92v-1.4h4.92Zm-3.16.24h1.4v3.52h-1.4Z" transform="translate(-187.04 463.5)"/><path d="M244.45-457.93H243v-5.16h1.41Zm3.51-5.16v5.16h-1.4v-1.88h-1.88v-1.4h1.88v-1.88Z" transform="translate(-187.04 463.5)"/><rect x="61.35" y="0.41" width="1.41" height="5.16"/><path d="M251.5-463.09l2.24,2.76h0l1.41,1.73v.67h-1.27l-2.24-2.77h0l-1.41-1.74v-.66Zm-1.27,1,1.41,1.74v2.39h-1.41Zm4.92-1V-459l-1.41-1.74v-2.38Z" transform="translate(-187.04 463.5)"/><path d="M257-457.93h-1.41v-5.16H257Zm3.51-5.16v5.16h-1.4v-1.88h-1.88v-1.4h1.88v-1.88Z" transform="translate(-187.04 463.5)"/><rect x="19.54" y="9.39" width="0.46" height="3.64" rx="0.03"/><path d="M214.19-454.11a0,0,0,0,1,0,0v3.58a0,0,0,0,1,0,0H214L212-453.07v2.57a0,0,0,0,1,0,0h-.38a0,0,0,0,1,0,0v-3.58a0,0,0,0,1,0,0h.2l1.95,2.61v-2.59a0,0,0,0,1,0,0Z" transform="translate(-187.04 463.5)"/><path d="M220.88-454.11s0,0,0,0v.4s0,0,0,0h-.95v3.15a0,0,0,0,1,0,0h-.4a0,0,0,0,1,0,0v-3.15h-1a0,0,0,0,1,0,0v-.4a0,0,0,0,1,0,0Z" transform="translate(-187.04 463.5)"/><path d="M227.5-454.11a0,0,0,0,1,0,0v.4a0,0,0,0,1,0,0h-1.94v1.13H227a0,0,0,0,1,0,0v.4a0,0,0,0,1,0,0h-1.41v1.13h1.94a0,0,0,0,1,0,0v.4a0,0,0,0,1,0,0h-2.36s0,0,0,0v-3.58s0,0,0,0Z" transform="translate(-187.04 463.5)"/><path d="M234.24-450.52s0,0,0,0,0,0,0,0h-.45s0,0,0,0l-.85-1.56h-.63v1.54a0,0,0,0,1,0,0h-.4a0,0,0,0,1,0,0v-3.57a0,0,0,0,1,0,0h1.34a1,1,0,0,1,.74.31,1,1,0,0,1,.29.75,1,1,0,0,1-.24.63,1,1,0,0,1-.57.34Zm-1.08-2a.54.54,0,0,0,.4-.17.54.54,0,0,0,.17-.4.54.54,0,0,0-.17-.4.54.54,0,0,0-.4-.17h-.91v1.14Z" transform="translate(-187.04 463.5)"/><rect x="51.49" y="9.39" width="0.47" height="3.64" rx="0.03"/><path d="M245.1-454.11a1.74,1.74,0,0,1,1.29.54,1.71,1.71,0,0,1,.53,1.28,1.75,1.75,0,0,1-.53,1.29,1.77,1.77,0,0,1-1.29.53,1.75,1.75,0,0,1-1.28-.53,1.75,1.75,0,0,1-.53-1.29,1.71,1.71,0,0,1,.53-1.28,1.72,1.72,0,0,1,1.28-.54m0,3.17a1.3,1.3,0,0,0,1-.39,1.31,1.31,0,0,0,.4-1,1.31,1.31,0,0,0-.4-1,1.3,1.3,0,0,0-1-.39,1.3,1.3,0,0,0-.95.39,1.31,1.31,0,0,0-.4,1,1.31,1.31,0,0,0,.4,1,1.3,1.3,0,0,0,.95.39" transform="translate(-187.04 463.5)"/><path d="M253.77-450.52a0,0,0,0,1,0,0s0,0,0,0h-.46l0,0L252.4-452h-.62v1.54s0,0,0,0h-.39s0,0,0,0v-3.57s0,0,0,0h1.33a1,1,0,0,1,.75.31,1,1,0,0,1,.29.75,1,1,0,0,1-.24.63,1,1,0,0,1-.57.34Zm-1.09-2a.57.57,0,0,0,.41-.17.54.54,0,0,0,.17-.4.54.54,0,0,0-.17-.4.57.57,0,0,0-.41-.17h-.9v1.14Z" transform="translate(-187.04 463.5)"/><path d="M259.15-452.57l.07,0,.08,0,.16.08a1.77,1.77,0,0,1,.32.21.93.93,0,0,1,.36.73.93.93,0,0,1-.32.74,1.28,1.28,0,0,1-.86.27,1.67,1.67,0,0,1-.76-.18l-.23-.14-.08-.06-.05,0s0,0,0-.05l.29-.27h0l0,0,.06,0,.16.1a1.18,1.18,0,0,0,.53.12c.48,0,.72-.18.72-.55a.5.5,0,0,0-.19-.37,2.13,2.13,0,0,0-.53-.3h0l-.12-.06-.06,0-.07,0-.15-.07a1.24,1.24,0,0,1-.28-.19.81.81,0,0,1-.32-.66.82.82,0,0,1,.28-.67,1.17,1.17,0,0,1,.79-.25,1.41,1.41,0,0,1,.67.16,1.07,1.07,0,0,1,.21.13l.08.05,0,0a0,0,0,0,1,0,0l-.14.14-.15.14h0l0,0-.05,0-.15-.08a1.13,1.13,0,0,0-.44-.1c-.41,0-.61.15-.61.46a.4.4,0,0,0,.16.31,1.63,1.63,0,0,0,.46.25h0Z" transform="translate(-187.04 463.5)"/><polygon class="cls-1" points="12.32 2.93 7.48 5.57 7.47 6.87 14.39 2.93 12.32 2.93"/><polygon class="cls-1" points="12.96 12.04 10.46 9.27 9.74 8.47 9.74 10.23 10.46 11.03 11.39 12.04 12.1 12.82 13.34 12.45 14.75 12.04 12.96 12.04"/><polygon class="cls-1" points="5.54 6.29 4.37 7.01 4.37 2.88 2.89 2.88 2.89 12.04 2.07 12.04 2.89 12.32 4.37 12.83 4.37 12.04 4.37 8.33 5.54 7.58 5.54 6.29"/><polygon class="cls-1" points="7.98 7.01 7.98 12.08 7.98 13.76 9.42 13.34 9.42 12.08 9.42 6.2 7.98 7.01"/><polygon class="cls-1" points="1.56 0 0 1.28 5.78 1.28 5.78 1.28 5.78 6.72 5.78 8.17 5.78 12.04 5.78 13.3 7.22 13.76 7.22 12.04 7.22 7.25 7.22 5.86 7.22 1.28 7.22 1.28 7.22 0 1.56 0"/><polygon class="cls-1" points="14.04 0 7.98 0 7.98 1.29 7.98 1.29 7.98 4.92 9.42 4.14 9.42 1.29 9.42 1.29 15.45 1.29 15.6 1.29 14.04 0"/></g></g></svg>