<svg xmlns="http://www.w3.org/2000/svg" viewBox="0 0 67.3 15.44"><defs><style>.cls-1{fill:#fff;}</style></defs><title>logo-ft</title><g id="Layer_2" data-name="Layer 2"><g id="Layer_1-2" data-name="Layer 1"><path class="cls-1" d="M336.67,589.91l-3.18,2.55-1.76,1.4h0l-.32.26v2.2h-1.75v-6.42h1.75v2l2.46-2Zm-3,2.79,2.47,3.63H334l-1.73-2.53Z" transform="translate(-329.66 -589.91)"/><path class="cls-1" d="M339,596.33h-1.75v-6.42H339Zm4.37-6.42v6.42h-1.75V594h-2.33v-1.75h2.33v-2.34Z" transform="translate(-329.66 -589.91)"/><polygon class="cls-1" points="19.3 0 22.09 6.41 20.18 6.41 19.8 5.54 16.84 5.54 17.6 3.79 19.04 3.79 18.15 1.75 18.14 1.75 16.11 6.41 14.2 6.41 16.99 0 19.3 0"/><path class="cls-1" d="M353.87,589.91l2.79,3.44h0l1.75,2.16v.83h-1.58L354,592.89h0l-1.75-2.16v-.83Zm-1.58,1.29,1.75,2.16v3h-1.75Zm6.12-1.29V595l-1.75-2.16v-3Z" transform="translate(-329.66 -589.91)"/><path class="cls-1" d="M358.94,592a2,2,0,0,1,2-2.05h4.08v1.75h-3.79a.55.55,0,0,0-.41.18.57.57,0,0,0-.17.41V594a.58.58,0,0,0,.58.58h2V594h-2l.77-1.75h3v4.08H361a2,2,0,0,1-2-2Z" transform="translate(-329.66 -589.91)"/><path class="cls-1" d="M374.42,591.66H368.3v-1.75h6.12Zm-3.94.3h1.75v4.37h-1.75Z" transform="translate(-329.66 -589.91)"/><path class="cls-1" d="M376.7,596.33H375v-6.42h1.75Zm4.37-6.42v6.42h-1.75V594H377v-1.75h2.33v-2.34Z" transform="translate(-329.66 -589.91)"/><rect class="cls-1" x="51.95" width="1.75" height="6.41"/><path class="cls-1" d="M385.48,589.91l2.78,3.44h0L390,595.5v.83h-1.58l-2.79-3.44h0l-1.75-2.16v-.83Zm-1.59,1.29,1.75,2.16v3h-1.75Zm6.12-1.29V595l-1.75-2.16v-3Z" transform="translate(-329.66 -589.91)"/><path class="cls-1" d="M392.3,596.33h-1.75v-6.42h1.75Zm4.37-6.42v6.42h-1.75V594h-2.33v-1.75h2.33v-2.34Z" transform="translate(-329.66 -589.91)"/><path class="cls-1" d="M331.81,601.57h-1.62V603h1.5v.44h-1.5v1.85h-.49v-4.16h2.11Z" transform="translate(-329.66 -589.91)"/><path class="cls-1" d="M335.82,603.6a1.88,1.88,0,0,1-.4,1.32,1.51,1.51,0,0,1-1.18.43,1.45,1.45,0,0,1-1.14-.42,1.84,1.84,0,0,1-.38-1.26v-2.54h.49v2.51a1.48,1.48,0,0,0,.27,1,1,1,0,0,0,.81.32,1,1,0,0,0,.78-.31,1.45,1.45,0,0,0,.26-.93v-2.55h.49Z" transform="translate(-329.66 -589.91)"/><path class="cls-1" d="M340,605.29h-.58l-.71-1.19a1.35,1.35,0,0,0-.34-.42.65.65,0,0,0-.35-.1h-.48v1.71H337v-4.16h1.24a1.4,1.4,0,0,1,.9.28,1,1,0,0,1,.36.85,1.15,1.15,0,0,1-.23.74,1.25,1.25,0,0,1-.63.43h0a1.53,1.53,0,0,1,.23.17,1.36,1.36,0,0,1,.21.28Zm-2.46-3.72v1.57h.67a.81.81,0,0,0,.6-.23.82.82,0,0,0,.24-.61.69.69,0,0,0-.21-.53.88.88,0,0,0-.63-.2Z" transform="translate(-329.66 -589.91)"/><path class="cls-1" d="M344.11,605.29h-.6L341.37,602l-.08-.13-.06-.13h0s0,.11,0,.21,0,.21,0,.36v3h-.49v-4.16h.64l2.08,3.26.11.17a.54.54,0,0,0,.06.11h0a1.47,1.47,0,0,1,0-.25c0-.1,0-.22,0-.36v-2.93h.49Z" transform="translate(-329.66 -589.91)"/><path class="cls-1" d="M345.86,605.29h-.49v-4.16h.49Z" transform="translate(-329.66 -589.91)"/><path class="cls-1" d="M349.58,601.57h-1.2v3.72h-.49v-3.72h-1.2v-.44h2.89Z" transform="translate(-329.66 -589.91)"/><path class="cls-1" d="M353.46,603.6a1.93,1.93,0,0,1-.4,1.32,1.52,1.52,0,0,1-1.19.43,1.44,1.44,0,0,1-1.13-.42,1.84,1.84,0,0,1-.38-1.26v-2.54h.49v2.51a1.48,1.48,0,0,0,.27,1,1,1,0,0,0,.81.32,1,1,0,0,0,.78-.31,1.45,1.45,0,0,0,.26-.93v-2.55h.49Z" transform="translate(-329.66 -589.91)"/><path class="cls-1" d="M357.61,605.29H357l-.71-1.19a1.35,1.35,0,0,0-.34-.42.65.65,0,0,0-.35-.1h-.48v1.71h-.48v-4.16h1.24a1.4,1.4,0,0,1,.9.28,1,1,0,0,1,.36.85,1.15,1.15,0,0,1-.23.74,1.25,1.25,0,0,1-.63.43h0a1.53,1.53,0,0,1,.23.17,1.36,1.36,0,0,1,.21.28Zm-2.46-3.72v1.57h.66a.81.81,0,0,0,.85-.84.69.69,0,0,0-.21-.53.88.88,0,0,0-.63-.2Z" transform="translate(-329.66 -589.91)"/><path class="cls-1" d="M360.6,605.29h-2.21v-4.16h2.11v.44h-1.62V603h1.5v.44h-1.5v1.45h1.72Z" transform="translate(-329.66 -589.91)"/><path class="cls-1" d="M362.9,605.29l1.59-4.16H365l1.6,4.16h-.54l-.42-1.12h-1.8l-.4,1.12Zm1.1-1.56h1.48l-.67-1.82s0-.07,0-.11a1.22,1.22,0,0,0,0-.17h0l0,.16a.56.56,0,0,1,0,.12Z" transform="translate(-329.66 -589.91)"/><path class="cls-1" d="M370.74,605.29h-.6L368,602l-.08-.13a.69.69,0,0,1-.05-.13h0s0,.11,0,.21v3.37h-.49v-4.16H368l2.08,3.26.11.17a.64.64,0,0,1,.06.11h0a1.47,1.47,0,0,1,0-.25c0-.1,0-.22,0-.36v-2.93h.49Z" transform="translate(-329.66 -589.91)"/><path class="cls-1" d="M372,605.29v-4.16h1.15a2.36,2.36,0,0,1,1.65.5,2,2,0,0,1,.55,1.52,2.08,2.08,0,0,1-.61,1.55,2.29,2.29,0,0,1-1.64.59Zm.49-3.72v3.27h.62a1.76,1.76,0,0,0,1.27-.43,1.64,1.64,0,0,0,.46-1.24,1.57,1.57,0,0,0-.43-1.2,1.78,1.78,0,0,0-1.27-.4Z" transform="translate(-329.66 -589.91)"/><path class="cls-1" d="M378.14,605.29v-4.16h1.15a2.36,2.36,0,0,1,1.65.5,2,2,0,0,1,.55,1.52,2,2,0,0,1-.61,1.55,2.26,2.26,0,0,1-1.63.59Zm.49-3.72v3.27h.62a1.75,1.75,0,0,0,1.27-.43,1.64,1.64,0,0,0,.46-1.24,1.53,1.53,0,0,0-.43-1.2,1.76,1.76,0,0,0-1.27-.4Z" transform="translate(-329.66 -589.91)"/><path class="cls-1" d="M384.68,605.29h-2.2v-4.16h2.11v.44H383V603h1.5v.44H383v1.45h1.71Z" transform="translate(-329.66 -589.91)"/><path class="cls-1" d="M388.59,605.08a3.48,3.48,0,0,1-.59.21,3,3,0,0,1-.62.06,1.9,1.9,0,0,1-1.47-.57,2.17,2.17,0,0,1-.52-1.5,2.24,2.24,0,0,1,.59-1.62,2,2,0,0,1,1.52-.6,2.45,2.45,0,0,1,.55.05,3,3,0,0,1,.53.18l-.18.4a2.08,2.08,0,0,0-.44-.15,2.35,2.35,0,0,0-.47,0,1.49,1.49,0,0,0-1.16.47,1.8,1.8,0,0,0-.43,1.28,1.76,1.76,0,0,0,.41,1.22,1.44,1.44,0,0,0,1.1.45,2.3,2.3,0,0,0,1-.24Z" transform="translate(-329.66 -589.91)"/><path class="cls-1" d="M391,605.35a1.82,1.82,0,0,1-1.42-.58,2.14,2.14,0,0,1-.53-1.52,2.31,2.31,0,0,1,.54-1.6,1.88,1.88,0,0,1,1.48-.59,1.76,1.76,0,0,1,1.38.58,2.16,2.16,0,0,1,.53,1.51,2.29,2.29,0,0,1-.54,1.61A1.84,1.84,0,0,1,391,605.35Zm0-.43a1.35,1.35,0,0,0,1.07-.45,1.79,1.79,0,0,0,.4-1.25,1.92,1.92,0,0,0-.38-1.27,1.33,1.33,0,0,0-1.06-.45A1.31,1.31,0,0,0,390,602a1.8,1.8,0,0,0-.41,1.24,1.83,1.83,0,0,0,.4,1.24A1.3,1.3,0,0,0,391,604.92Z" transform="translate(-329.66 -589.91)"/><path class="cls-1" d="M397,605.29h-.58l-.71-1.19a1.35,1.35,0,0,0-.34-.42.65.65,0,0,0-.35-.1h-.48v1.71H394v-4.16h1.24a1.4,1.4,0,0,1,.9.28,1,1,0,0,1,.36.85,1.15,1.15,0,0,1-.23.74,1.25,1.25,0,0,1-.63.43h0a1.53,1.53,0,0,1,.23.17,1.36,1.36,0,0,1,.21.28Zm-2.46-3.72v1.57h.66a.81.81,0,0,0,.85-.84.69.69,0,0,0-.21-.53.88.88,0,0,0-.63-.2Z" transform="translate(-329.66 -589.91)"/></g></g></svg>