<svg xmlns="http://www.w3.org/2000/svg" viewBox="0 0 28.05 16.8"><defs><style>.cls-1{fill:#231f20;}</style></defs><title>process-7</title><g id="Layer_2" data-name="Layer 2"><g id="Layer_1-2" data-name="Layer 1"><path class="cls-1" d="M354.85,248.44h-3.59a.52.52,0,0,1-.48-.33,2.84,2.84,0,0,0-5.3,0,.52.52,0,0,1-.48.33h-5.13a.52.52,0,0,1-.48-.33,2.84,2.84,0,0,0-5.3,0,.52.52,0,0,1-.48.33h-3.69a1.58,1.58,0,0,1-1.56-1.6v-1.63h.05a1.12,1.12,0,0,1,1.09-.87h13.23a1,1,0,0,0,1-1v-7.26a1.15,1.15,0,0,1,1.15-1.15h4.37a1.11,1.11,0,0,1,.81.34l6,6a1.18,1.18,0,0,1,.33.81v4.74a1.58,1.58,0,0,1-1.56,1.6m-3.53-.6h3.53a1,1,0,0,0,1-1V242.1a.55.55,0,0,0-.16-.38l-6-6a.49.49,0,0,0-.38-.16h-4.37a.54.54,0,0,0-.54.54v7.26a1.6,1.6,0,0,1-1.6,1.6H329.5a.54.54,0,0,0-.51.43l0,.25v1.22a1,1,0,0,0,1,1h3.63a3.45,3.45,0,0,1,6.38,0h5a3.45,3.45,0,0,1,6.38,0m.27-6.91h-5.52a1,1,0,0,1-1-1v-2.83a1,1,0,0,1,1-1h2.82a1,1,0,0,1,.73.31l2.7,2.83a1,1,0,0,1-.73,1.71m-5.52-4.25a.4.4,0,0,0-.4.41v2.83a.4.4,0,0,0,.4.4h5.52a.38.38,0,0,0,.37-.24.4.4,0,0,0-.07-.44l-2.71-2.83a.41.41,0,0,0-.29-.13Z" transform="translate(-328.36 -234.93)"/><path class="cls-1" d="M341.13,243.84H330.67a2,2,0,0,1-2-2v-4.56a2,2,0,0,1,2-2h10.46a2,2,0,0,1,2,2v4.56a2,2,0,0,1-2,2m-10.46-8a1.4,1.4,0,0,0-1.4,1.39v4.56a1.4,1.4,0,0,0,1.4,1.4h10.46a1.4,1.4,0,0,0,1.39-1.4v-4.56a1.39,1.39,0,0,0-1.39-1.39Z" transform="translate(-328.36 -234.93)"/><path class="cls-1" d="M336.73,251.73a2.4,2.4,0,1,1,2.4-2.39,2.39,2.39,0,0,1-2.4,2.39m0-4.18a1.79,1.79,0,1,0,1.79,1.79,1.79,1.79,0,0,0-1.79-1.79" transform="translate(-328.36 -234.93)"/><path class="cls-1" d="M348.1,251.73a2.4,2.4,0,1,1,2.4-2.39,2.39,2.39,0,0,1-2.4,2.39m0-4.18a1.79,1.79,0,1,0,1.79,1.79,1.79,1.79,0,0,0-1.79-1.79" transform="translate(-328.36 -234.93)"/></g></g></svg>