<svg xmlns="http://www.w3.org/2000/svg" viewBox="0 0 28.79 14.11"><defs><style>.cls-1{fill:#282525;}</style></defs><title>process-2</title><g id="Layer_2" data-name="Layer 2"><g id="Layer_1-2" data-name="Layer 1"><path class="cls-1" d="M310.92,194l-1.62-11.07-.24-1.6c0-.15-.19-.19-.31-.18l-3.61.53a.26.26,0,0,0-.18.31c.24,1.61.47,3.22.71,4.82l-3.41-3.28-1.16-1.12a.26.26,0,0,0-.36,0L298.21,185a.26.26,0,0,0,0,.36l.64.61-.52-.23a.25.25,0,0,0-.35.09l-1.5,3.32a.26.26,0,0,0,.09.35l1.82.82h-1.16a.26.26,0,0,0-.25.25c0,1.22,0,2.44,0,3.66a.26.26,0,0,0,.25.25l9.62.11v0c0,.15.19.19.31.18l.87-.13.23.1a.27.27,0,0,0,.35-.09l0-.08,1.38,0a.25.25,0,0,0,.25-.25v0l.5-.07a.21.21,0,0,0,.18-.25V194m-12.18-8.79,2.19-2.27,4.86,4.68c.25,1.7.5,3.4.74,5.1l-6.8-6.56-1-.95m-.45,4.56-1.26-.57,1.29-2.88,1.6.73,6.35,6.11.38.37v0l-8.37-3.78m.52,4.25h-1.36l0-3.15,2.06,0,7.16,3.24-7.89-.1m8.46.29-1.59-10.85c-.06-.44-.13-.88-.19-1.32l3.12-.46,1.59,10.85c.06.44.13.88.19,1.32l-3.12.46" transform="translate(-296.45 -181.13)"/><path class="cls-1" d="M308.65,191.9a.85.85,0,1,0,.84.85.84.84,0,0,0-.84-.85m0,1.42a.58.58,0,1,1,0-1.15.58.58,0,0,1,0,1.15" transform="translate(-296.45 -181.13)"/><path class="cls-1" d="M311.32,186.83l0,.06a7,7,0,0,0,6.66,8.35h.24a7,7,0,0,0,5-12,7,7,0,0,0-5.21-2.05,7.49,7.49,0,0,0-1.16.13h0a1,1,0,0,0-.64.54,1.24,1.24,0,0,0,.13,1l0,0,0,.05,0,0a2.48,2.48,0,0,1-3.46,3.27l-.46-.27v.12a1,1,0,0,0-.45.06,1.2,1.2,0,0,0-.64.65m.58.21a.62.62,0,0,1,.28-.28.51.51,0,0,1,.4.06l.07,0,.14.08.38.19v-.05a3.1,3.1,0,0,0,3.79-4.21l0,0-.12-.16,0-.06,0,0a.64.64,0,0,1-.09-.47.34.34,0,0,1,.24-.18,5.8,5.8,0,0,1,1-.12,6.41,6.41,0,1,1-4.31,10.93,6.42,6.42,0,0,1-1.77-5.7" transform="translate(-296.45 -181.13)"/><path class="cls-1" d="M314.3,190.84a1.47,1.47,0,0,0,.9-.68,1.51,1.51,0,0,0,.14-1.12,1.47,1.47,0,1,0-2.16,1.66,1.49,1.49,0,0,0,.74.2,1.31,1.31,0,0,0,.38-.06m-1-.41a1.17,1.17,0,0,1-.54-.71,1.13,1.13,0,0,1,.11-.88,1.17,1.17,0,0,1,.71-.54,1.15,1.15,0,0,1,1.42.82,1.16,1.16,0,0,1-1.7,1.31" transform="translate(-296.45 -181.13)"/><path class="cls-1" d="M315.57,193.16a1.45,1.45,0,0,0,.9.69,1.28,1.28,0,0,0,.38.05,1.48,1.48,0,0,0,1-.4,1.59,1.59,0,0,0,.42-.69,1.47,1.47,0,0,0-.42-1.46,1.7,1.7,0,0,0-.63-.35,1.48,1.48,0,0,0-1.66,2.16m.16-1a1.17,1.17,0,0,1,1.42-.83,1.19,1.19,0,0,1,.83,1.43,1.22,1.22,0,0,1-.34.55,1.14,1.14,0,0,1-1.09.27,1.15,1.15,0,0,1-.82-1.42" transform="translate(-296.45 -181.13)"/><path class="cls-1" d="M320.91,190a1.47,1.47,0,1,0,1.48,1.48,1.44,1.44,0,0,0-.44-1,1.47,1.47,0,0,0-1-.44m.82,2.3a1.16,1.16,0,0,1-1.64,0,1.16,1.16,0,1,1,1.64-1.64,1.16,1.16,0,0,1,0,1.64" transform="translate(-296.45 -181.13)"/><path class="cls-1" d="M320.81,188a1.46,1.46,0,0,0,1.42,1.09,1.65,1.65,0,0,0,.38,0,1.47,1.47,0,0,0-.76-2.85h0a1.47,1.47,0,0,0-1,1.81m1.12-1.51a1.16,1.16,0,1,1-.82,1.43,1.16,1.16,0,0,1,.82-1.43" transform="translate(-296.45 -181.13)"/><path class="cls-1" d="M318.92,186a1.73,1.73,0,0,0,.38.05,1.49,1.49,0,0,0,.74-.2,1.47,1.47,0,1,0-2-.54,1.52,1.52,0,0,0,.9.69m-.74-1.73a1.16,1.16,0,0,1,2.24.6,1.16,1.16,0,0,1-1.42.83,1.16,1.16,0,0,1-.82-1.43" transform="translate(-296.45 -181.13)"/></g></g></svg>