<svg xmlns="http://www.w3.org/2000/svg" viewBox="0 0 18.31 18.31"><defs><style>.cls-1{fill:none;stroke:#282525;stroke-miterlimit:10;stroke-width:0.75px;}.cls-2{fill:#282525;}</style></defs><title>process-5</title><g id="Layer_2" data-name="Layer 2"><g id="Layer_1-2" data-name="Layer 1"><rect class="cls-1" x="0.38" y="0.38" width="17.56" height="17.56" rx="3.1"/><path class="cls-2" d="M484.05,189.26c-1.21-.47-1.42-.78-1.42-1.27s.32-.9,1.22-.9a2.7,2.7,0,0,1,1.37.34l.35.21.5-1.5-.23-.14a4,4,0,0,0-2-.44H484v-1.68h-1.28v1.87h0a2.85,2.85,0,0,0-.93.53,2.39,2.39,0,0,0-.84,1.84c0,1.19.77,2.06,2.37,2.64,1.11.41,1.33.79,1.33,1.31s-.52,1.07-1.38,1.07a3.22,3.22,0,0,1-1.71-.49l-.36-.23-.48,1.53.2.14a4.25,4.25,0,0,0,1.8.56v1.3H484V194.6h-.07a3.11,3.11,0,0,0,1.64-.74,2.53,2.53,0,0,0,.8-1.9c0-1.61-1.15-2.27-2.28-2.71m-.4-3.69h0m-.74.11,0,0,0,0m.15,0h0m.14,0h0m.15,0h0m.15,0h0m-.68.12-.05,0,.05,0m.49,9h0m-.51,0h0m.24,0h0m.68,0h0m-.37,0h0m.19,0h0" transform="translate(-474.35 -180.76)"/></g></g></svg>