<svg xmlns="http://www.w3.org/2000/svg" viewBox="0 0 25.5 19.62"><defs><style>.cls-1{fill:#282525;}</style></defs><title>process-9</title><g id="Layer_2" data-name="Layer 2"><g id="Layer_1-2" data-name="Layer 1"><path class="cls-1" d="M449.93,239.53h10.55a.32.32,0,1,0,0-.63H449.93a.32.32,0,0,0,0,.63" transform="translate(-446.55 -232.81)"/><path class="cls-1" d="M460.48,247.54H449.93a.31.31,0,1,0,0,.62h10.55a.31.31,0,1,0,0-.62" transform="translate(-446.55 -232.81)"/><path class="cls-1" d="M471.48,233.52l0,0a1.87,1.87,0,0,0-1.34-.61,2,2,0,0,0-1.32.56l-4.07,4.08a.31.31,0,0,0-.09.22.22.22,0,0,0,0,.08l-.25.24-.1-.11-.43.43v-5.58H446.55v19.62h17.32v-8.67l3.11-3.11-.11-.12.24-.24h.08a.31.31,0,0,0,.22-.09l4-4a2.17,2.17,0,0,0,.62-1.37,1.87,1.87,0,0,0-.57-1.31m-8.24,10.86v7.42H447.18V233.43h16.06V239l-3.5,3.5.25.25-.08.49h-10a.32.32,0,0,0,0,.63h9.87l-.26,1.53,2.65-.46.24.25.81-.82.31-.31Zm-2.89.72-.58.11h0l.11-.63.13.14.29-1.7,1.65,1.65-1.69.3Zm2.08-.79-1.8-1.8,3.67-3.66,1.79,1.8Zm4.11-3.89-2-2,.2-.2,2,2Zm4.45-4.67-3.8,3.8-1.8-1.8,3.85-3.85h0a1.33,1.33,0,0,1,.87-.38,1.28,1.28,0,0,1,.89.42v0a1.2,1.2,0,0,1,.4.85,1.48,1.48,0,0,1-.43.94" transform="translate(-446.55 -232.81)"/><path class="cls-1" d="M464.72,236.72a.26.26,0,0,0,.38,0l2.89-2.89a.26.26,0,0,0,0-.38h0a.27.27,0,0,0-.39,0l-2.89,2.89a.27.27,0,0,0,0,.39Z" transform="translate(-446.55 -232.81)"/></g></g></svg>