<svg xmlns="http://www.w3.org/2000/svg" viewBox="0 0 25.5 19.62"><defs><style>.cls-1{fill:#282525;}</style></defs><title>process-4</title><g id="Layer_2" data-name="Layer 2"><g id="Layer_1-2" data-name="Layer 1"><path class="cls-1" d="M421.46,186.36H432a.31.31,0,0,0,.31-.31.32.32,0,0,0-.31-.32H421.46a.32.32,0,0,0-.31.32.31.31,0,0,0,.31.31" transform="translate(-418.08 -179.64)"/><path class="cls-1" d="M432,194.37H421.46a.32.32,0,0,0,0,.63H432a.32.32,0,0,0,0-.63" transform="translate(-418.08 -179.64)"/><path class="cls-1" d="M443,180.36l0,0a1.83,1.83,0,0,0-1.34-.61,2,2,0,0,0-1.31.56l-4.08,4.07a.36.36,0,0,0-.09.22s0,.06,0,.08l-.24.25-.11-.11-.43.42v-5.58H418.08v19.63h17.31v-8.68l3.12-3.11-.11-.11.24-.24h.08a.31.31,0,0,0,.22-.09l4-4a2.06,2.06,0,0,0,.62-1.37,1.79,1.79,0,0,0-.57-1.3m-8.23,10.86v7.42H418.7V180.27h16.07v5.58l-3.5,3.5.25.25-.08.49h-10a.31.31,0,0,0-.31.31.32.32,0,0,0,.31.32h9.87l-.27,1.53,2.65-.46.24.24.82-.81.31-.31Zm-2.89.72-.58.11h-.05l.11-.63.14.13.29-1.69,1.65,1.65-1.69.29Zm2.07-.79-1.79-1.8,3.66-3.67,1.8,1.8Zm4.11-3.89-2-2,.21-.21,2,2Zm4.46-4.67-3.8,3.79-1.8-1.8,3.85-3.85h0a1.49,1.49,0,0,1,.88-.38,1.25,1.25,0,0,1,.88.42l0,0a1.21,1.21,0,0,1,.4.86,1.6,1.6,0,0,1-.43.94" transform="translate(-418.08 -179.64)"/><path class="cls-1" d="M436.24,183.56a.27.27,0,0,0,.39,0l2.89-2.89a.27.27,0,0,0,0-.39h0a.27.27,0,0,0-.39,0l-2.89,2.89a.27.27,0,0,0,0,.39Z" transform="translate(-418.08 -179.64)"/></g></g></svg>