<svg xmlns="http://www.w3.org/2000/svg" viewBox="0 0 22.08 22.76"><defs><style>.cls-1{fill:#282525;}</style></defs><title>process-3</title><g id="Layer_2" data-name="Layer 2"><g id="Layer_1-2" data-name="Layer 1"><path class="cls-1" d="M376.46,178.42l-3.54-2.25a1,1,0,0,0-1.4.31l-11.7,18.44a1,1,0,0,0,.31,1.4l3.55,2.25a1,1,0,0,0,1.4-.31l11.7-18.44a1,1,0,0,0-.32-1.4m-.11,1.13-1.71,2.71-1.48-.94c-.23-.14-.45.21-.23.35l1.48.94-.64,1-1.48-.94c-.22-.14-.45.21-.22.35l1.48.94-.64,1-1.48-.94a.21.21,0,0,0-.22.36l1.48.93-.65,1-2.51-1.59c-.22-.14-.45.21-.22.35l2.51,1.6-.64,1-1.48-.94c-.22-.15-.45.21-.22.35l1.48.94-.64,1-1.48-.94c-.23-.14-.45.21-.23.35l1.48.94-.64,1-1.48-.94c-.22-.14-.45.21-.22.35l1.48.94-.64,1-2.51-1.59a.21.21,0,0,0-.23.35l2.52,1.59-.65,1-1.47-.94a.21.21,0,0,0-.23.36l1.48.94-.64,1-1.48-.94c-.22-.15-.45.2-.22.35l1.48.94-2,3.12a.52.52,0,0,1-.71.16l-3.55-2.25a.52.52,0,0,1-.16-.71l11.7-18.44a.52.52,0,0,1,.71-.16l3.55,2.25a.52.52,0,0,1,.15.71" transform="translate(-359.66 -176.01)"/><path class="cls-1" d="M374,178.3a.82.82,0,1,0,.26,1.14.83.83,0,0,0-.26-1.14m-.16.87a.33.33,0,0,1-.45.1.33.33,0,0,1-.1-.45.32.32,0,0,1,.45-.1.33.33,0,0,1,.1.45" transform="translate(-359.66 -176.01)"/><path class="cls-1" d="M374.5,195.55a.58.58,0,0,0,.46.57v.43l.48.26v.92h.48v-.65l.15.08v-7.85l3.92,3.92.09-.27.91.91-.39-1.07-.37-.36.12-.38-.32-.32a.61.61,0,0,0,.08-.3.58.58,0,0,0-.58-.58.53.53,0,0,0-.3.09l-2.58-2.59a1.1,1.1,0,0,0,0-.18,1,1,0,0,0-.49-.87v-1.16H375.1v1.17A1,1,0,0,0,375,189l0,6a.57.57,0,0,0-.46.56m1.26,2h-.17v-.67l.17.09Zm.08-.84v0l-.65-.36v-.29a.59.59,0,0,0,.46-.57.58.58,0,0,0-.45-.56l0-5.89a1,1,0,0,0,.43.1l.19,0Zm4.34-4.13.29.29.14.38-.48-.48Zm-.65-1.51a.35.35,0,0,1,.35.35.35.35,0,0,1-.35.34.34.34,0,0,1-.34-.34.35.35,0,0,1,.34-.35m-.47,0a.65.65,0,0,0-.1.34.58.58,0,0,0,.57.58.65.65,0,0,0,.34-.11l.22.21-.21.67-3.73-3.73a1,1,0,0,0,.42-.45Zm-3.23-4.8H376v.9h-.1l-.09,0Zm-.26,0h.11v.86h-.11Zm-.32,0h.17v.89h-.17Zm-.39,1.88a.79.79,0,1,1,.79.79.79.79,0,0,1-.79-.79m.21,7a.35.35,0,0,1,.35.34.35.35,0,0,1-.35.35.35.35,0,0,1-.34-.35.34.34,0,0,1,.34-.34" transform="translate(-359.66 -176.01)"/><path class="cls-1" d="M375.65,188.75a.57.57,0,1,0-.57-.57.58.58,0,0,0,.57.57m0-.91a.34.34,0,0,1,0,.68.34.34,0,0,1,0-.68" transform="translate(-359.66 -176.01)"/><path class="cls-1" d="M378.1,198.18a3.92,3.92,0,0,1-2.06,0,.21.21,0,0,0-.25.25.19.19,0,0,0,.14.15,3.94,3.94,0,0,0,1,.14,4.58,4.58,0,0,0,3.47-1.68,7.45,7.45,0,0,0,1.3-2.68.2.2,0,0,0-.14-.25.19.19,0,0,0-.26.14c-.42,1.47-1.32,3.34-3.23,3.88" transform="translate(-359.66 -176.01)"/></g></g></svg>