<svg xmlns="http://www.w3.org/2000/svg" viewBox="0 0 21.2 26.96"><defs><style>.cls-1{fill:#282525;}</style></defs><title>process-1</title><g id="Layer_2" data-name="Layer 2"><g id="Layer_1-2" data-name="Layer 1"><path class="cls-1" d="M250.16,184.88H237.1a.41.41,0,0,0,0,.82h13.06a.41.41,0,0,0,0-.82" transform="translate(-233.94 -173.54)"/><path class="cls-1" d="M250.16,188.59H237.1a.41.41,0,0,0,0,.81h13.06a.41.41,0,0,0,0-.81" transform="translate(-233.94 -173.54)"/><path class="cls-1" d="M250.16,192.29H237.1a.41.41,0,0,0,0,.82h13.06a.41.41,0,0,0,0-.82" transform="translate(-233.94 -173.54)"/><path class="cls-1" d="M250.16,196H237.1a.41.41,0,0,0,0,.81h13.06a.41.41,0,0,0,0-.81" transform="translate(-233.94 -173.54)"/><path class="cls-1" d="M238.47,181.58a1,1,0,1,0-1,1,1,1,0,0,0,1-1m-1.65,0a.62.62,0,0,1,.61-.61.61.61,0,0,1,.61.61.61.61,0,0,1-.61.61.61.61,0,0,1-.61-.61" transform="translate(-233.94 -173.54)"/><path class="cls-1" d="M240.53,182.63a1,1,0,1,0-1-1,1,1,0,0,0,1,1m0-1.66a.61.61,0,0,1,.61.61.61.61,0,0,1-1.22,0,.61.61,0,0,1,.61-.61" transform="translate(-233.94 -173.54)"/><path class="cls-1" d="M243.63,182.63a1,1,0,1,0-1-1,1,1,0,0,0,1,1m0-1.66a.61.61,0,0,1,.61.61.61.61,0,1,1-1.22,0,.61.61,0,0,1,.61-.61" transform="translate(-233.94 -173.54)"/><path class="cls-1" d="M246.73,182.63a1,1,0,1,0-1-1,1,1,0,0,0,1,1m0-1.66a.62.62,0,0,1,.61.61.61.61,0,0,1-.61.61.61.61,0,0,1-.61-.61.61.61,0,0,1,.61-.61" transform="translate(-233.94 -173.54)"/><path class="cls-1" d="M248.78,181.58a1,1,0,1,0,1.05-1,1,1,0,0,0-1.05,1m1.05-.61a.62.62,0,0,1,.61.61.61.61,0,0,1-.61.61.61.61,0,0,1-.61-.61.61.61,0,0,1,.61-.61" transform="translate(-233.94 -173.54)"/><path class="cls-1" d="M254.53,180.19c-.19,0-.43,0-.71,0V177.7H251.1a2.36,2.36,0,0,0,.79-1.69,1.61,1.61,0,0,0-1.32-1.64,1.8,1.8,0,0,0-1.56.25,2.39,2.39,0,0,0-.8,1.53v0a2.28,2.28,0,0,1,0-1.82.61.61,0,0,0-.46-.75.59.59,0,0,0-.74.43,3.35,3.35,0,0,0,.46,3.16,2.67,2.67,0,0,0,.61.55H233.94v22.8h19.88V181.42h.72a.61.61,0,0,0,.6-.64.59.59,0,0,0-.61-.6m-1.36-1.84v1.75a4.7,4.7,0,0,1-3.2-1.75Zm0,21.5H234.59v-21.5h13.92a5.79,5.79,0,0,0,4.66,3ZM254.53,181c-2.64.05-4.75-1-5.64-2.84a3.61,3.61,0,0,1-.17-.47l0-.09-.09,0a2.53,2.53,0,0,1-.87-.68,2.93,2.93,0,0,1-.37-2.77.15.15,0,0,1,.15-.13h.07a.18.18,0,0,1,.14.23,2.65,2.65,0,0,0,.1,2.14,2.1,2.1,0,0,0,.41.49l.35.33v-.48a2.2,2.2,0,0,1,.67-1.72,1.35,1.35,0,0,1,1.2-.18,1.18,1.18,0,0,1,1,1.22,1.87,1.87,0,0,1-1.38,1.76,2.09,2.09,0,0,1-.56,0l-.39,0,.18.35c1.22,2.31,4.06,2.51,5.23,2.49h0a.16.16,0,0,1,.17.18.18.18,0,0,1-.18.2" transform="translate(-233.94 -173.54)"/><path class="cls-1" d="M250.49,177.2c.72-.47.66-1,.6-1.2a1.09,1.09,0,0,0-1-.76,1.12,1.12,0,0,0-1.1.81,2,2,0,0,0,0,1.14l0,.12.11,0a2,2,0,0,0,.57.1,1.53,1.53,0,0,0,.83-.25m-1.15-.23a1.5,1.5,0,0,1,0-.77.69.69,0,0,1,.67-.53.7.7,0,0,1,.62.45c.06.24-.09.49-.43.72a1.09,1.09,0,0,1-.91.13" transform="translate(-233.94 -173.54)"/></g></g></svg>