<svg xmlns="http://www.w3.org/2000/svg" viewBox="0 0 18.31 18.31"><defs><style>.cls-1{fill:none;stroke:#282525;stroke-miterlimit:10;stroke-width:0.75px;}.cls-2{fill:#282525;}</style></defs><title>process-8</title><g id="Layer_2" data-name="Layer 2"><g id="Layer_1-2" data-name="Layer 1"><rect class="cls-1" x="0.38" y="0.38" width="17.56" height="17.56" rx="3.1"/><path class="cls-2" d="M400.67,241.61c-1.21-.46-1.42-.78-1.42-1.27s.32-.9,1.22-.9a2.7,2.7,0,0,1,1.37.34l.35.21.51-1.5-.23-.14a4.1,4.1,0,0,0-2-.44h.09v-1.68H399.3v1.87h0a2.78,2.78,0,0,0-.94.52,2.4,2.4,0,0,0-.84,1.84c0,1.19.78,2.06,2.37,2.64,1.12.41,1.33.79,1.33,1.31,0,.67-.51,1.07-1.38,1.07a3.31,3.31,0,0,1-1.71-.48l-.36-.24-.48,1.53.2.14a4.34,4.34,0,0,0,1.8.56v1.3h1.29V247h-.07a3,3,0,0,0,1.63-.74,2.54,2.54,0,0,0,.81-1.9c0-1.61-1.16-2.27-2.29-2.71m-.4-3.69h0m-.73.11,0,0,0,0m.14,0h0m.14,0h0m.15,0h0m.15,0h0m-.67.12-.05,0,.05,0m.49,9h0m-.51,0h0m.24,0h0m.67,0,.11,0-.11,0m-.37,0h0m.19,0h0" transform="translate(-390.97 -233.11)"/></g></g></svg>