<svg xmlns="http://www.w3.org/2000/svg" viewBox="0 0 41.66 41.66"><defs><style>.cls-1{fill:none;stroke:#fff;stroke-miterlimit:10;}.cls-2{fill:#fff;}</style></defs><title>social-instagram</title><g id="Layer_2" data-name="Layer 2"><g id="Layer_1-2" data-name="Layer 1"><circle class="cls-1" cx="20.83" cy="20.83" r="20.33"/><path class="cls-2" d="M20.83,10.34c3.42,0,3.82,0,5.17.07a7.32,7.32,0,0,1,2.38.44,4.27,4.27,0,0,1,2.43,2.43,7.05,7.05,0,0,1,.44,2.38c.06,1.35.08,1.75.08,5.17s0,3.82-.08,5.17a7.05,7.05,0,0,1-.44,2.38,4.27,4.27,0,0,1-2.43,2.43,7.05,7.05,0,0,1-2.38.44c-1.35.06-1.75.08-5.17.08s-3.82,0-5.17-.08a7.05,7.05,0,0,1-2.38-.44,4.27,4.27,0,0,1-2.43-2.43A7.32,7.32,0,0,1,10.41,26c-.06-1.35-.07-1.75-.07-5.17s0-3.82.07-5.17a7.32,7.32,0,0,1,.44-2.38,4.27,4.27,0,0,1,2.43-2.43,7.32,7.32,0,0,1,2.38-.44c1.35-.06,1.75-.07,5.17-.07m0-2.31c-3.48,0-3.91,0-5.28.08a9.46,9.46,0,0,0-3.1.59A6.57,6.57,0,0,0,8.7,12.45a9.46,9.46,0,0,0-.59,3.1C8,16.92,8,17.35,8,20.83s0,3.91.08,5.28a9.59,9.59,0,0,0,.59,3.11,6.32,6.32,0,0,0,1.48,2.26A6.14,6.14,0,0,0,12.45,33a9.43,9.43,0,0,0,3.1.6c1.37.06,1.8.07,5.28.07s3.91,0,5.28-.07a9.56,9.56,0,0,0,3.11-.6A6.62,6.62,0,0,0,33,29.22a9.56,9.56,0,0,0,.6-3.11c.06-1.37.07-1.8.07-5.28s0-3.91-.07-5.28a9.43,9.43,0,0,0-.6-3.1,6.14,6.14,0,0,0-1.48-2.27A6.32,6.32,0,0,0,29.22,8.7a9.59,9.59,0,0,0-3.11-.59C24.74,8,24.31,8,20.83,8Z"/><path class="cls-2" d="M20.83,14.26a6.57,6.57,0,1,0,6.57,6.57A6.57,6.57,0,0,0,20.83,14.26Zm0,10.84a4.27,4.27,0,1,1,4.27-4.27A4.27,4.27,0,0,1,20.83,25.1Z"/><circle class="cls-2" cx="27.66" cy="14" r="1.54"/></g></g></svg>