<svg xmlns="http://www.w3.org/2000/svg" viewBox="0 0 41.8 41.8"><defs><style>.cls-1{fill:none;stroke:#fff;stroke-miterlimit:10;}.cls-2{fill:#fff;}</style></defs><title>social-pinterest</title><g id="Layer_2" data-name="Layer 2"><g id="Layer_1-2" data-name="Layer 1"><circle class="cls-1" cx="20.9" cy="20.9" r="20.4"/><path class="cls-2" d="M17.42,32.56l1.27-4.83a5.4,5.4,0,0,0,4.65,2.34c6.12,0,10.53-5.64,10.53-12.64,0-6.72-5.48-11.74-12.52-11.74C12.57,5.69,7.92,11.58,7.92,18c0,3,1.59,6.69,4.13,7.88.39.18.61.1.69-.27s.42-1.67.57-2.31a.59.59,0,0,0-.14-.58,8,8,0,0,1-1.5-4.64,8.79,8.79,0,0,1,9.18-8.81c5,0,8.49,3.4,8.49,8.26,0,5.49-2.77,9.3-6.38,9.3a3,3,0,0,1-3-3.68c.58-2.42,1.68-5,1.68-6.77,0-1.56-.83-2.86-2.57-2.86-2,0-3.68,2.11-3.68,4.93a7.42,7.42,0,0,0,.6,3S15.41,30,15,31.61a22,22,0,0,0-.17,6l.18.07A21.11,21.11,0,0,0,17.42,32.56Z"/></g></g></svg>