<svg xmlns="http://www.w3.org/2000/svg" viewBox="0 0 41.8 41.8"><defs><style>.cls-1{fill:none;stroke:#fff;stroke-miterlimit:10;}.cls-2{fill:#fff;}</style></defs><title>social-tiktok</title><g id="Layer_2" data-name="Layer 2"><g id="Layer_1-2" data-name="Layer 1"><circle class="cls-1" cx="20.9" cy="20.9" r="20.4"/><path class="cls-2" d="M32.33,14.16c0-.12,0-.13-.13-.12a6.69,6.69,0,0,1-.89-.08c-1.06-.16-4.53-2-5.11-5a9.54,9.54,0,0,1-.14-1.11c0-.14,0-.14-.14-.14H21.76c-.28,0-.24,0-.24.24V25.62a3.66,3.66,0,0,1,0,.66,3.78,3.78,0,0,1-1.77,2.63,3.69,3.69,0,0,1-2.77.48,4.63,4.63,0,0,1-.89-.29L16,29l-.31-.22a3.75,3.75,0,0,1,.84-6.68,3.29,3.29,0,0,1,1.35-.2,3.83,3.83,0,0,1,.89.13c.1,0,.15,0,.16-.11v-.11c0-1.06,0-3.36-.05-3.37,0-.3,0-.6,0-.91,0-.08,0-.1-.11-.11a9.1,9.1,0,0,0-1.65,0,8.37,8.37,0,0,0-2.21.46,8.16,8.16,0,0,0-3,1.9,8,8,0,0,0-1.76,2.51,8.3,8.3,0,0,0-.71,2.85,8.49,8.49,0,0,0,.37,3.05,8.27,8.27,0,0,0,2.81,4,2.08,2.08,0,0,0,.43.3h0l.21.18a4.17,4.17,0,0,0,.69.43,8.37,8.37,0,0,0,4.77.84,8.38,8.38,0,0,0,7.4-8.32c0-2.92,0-5.85,0-8.78,0-.07,0-.17,0-.2s.12.05.18.09a10.86,10.86,0,0,0,3.53,1.52,10,10,0,0,0,2.25.27c.24,0,.27,0,.27-.25C32.38,17.27,32.33,14.43,32.33,14.16Z"/></g></g></svg>